<svg width="32" height="9" viewBox="0 0 32 9" fill="none" xmlns="http://www.w3.org/2000/svg">
<path d="M7.13281 -2.38419e-07V8H5.92969V1.03125H2.16406V8H0.960938V-2.38419e-07H7.13281ZM11.4121 8.12109C10.8496 8.12109 10.3587 7.99219 9.93945 7.73437C9.52018 7.47656 9.19466 7.11589 8.96289 6.65234C8.73112 6.1888 8.61523 5.64714 8.61523 5.02734C8.61523 4.40495 8.73112 3.86068 8.96289 3.39453C9.19466 2.92839 9.52018 2.56641 9.93945 2.30859C10.3587 2.05078 10.8496 1.92188 11.4121 1.92188C11.9746 1.92188 12.4655 2.05078 12.8848 2.30859C13.304 2.56641 13.6296 2.92839 13.8613 3.39453C14.0931 3.86068 14.209 4.40495 14.209 5.02734C14.209 5.64714 14.0931 6.1888 13.8613 6.65234C13.6296 7.11589 13.304 7.47656 12.8848 7.73437C12.4655 7.99219 11.9746 8.12109 11.4121 8.12109ZM11.416 7.14062C11.7806 7.14062 12.0827 7.04427 12.3223 6.85156C12.5618 6.65885 12.7389 6.40234 12.8535 6.08203C12.9707 5.76172 13.0293 5.40885 13.0293 5.02344C13.0293 4.64062 12.9707 4.28906 12.8535 3.96875C12.7389 3.64583 12.5618 3.38672 12.3223 3.19141C12.0827 2.99609 11.7806 2.89844 11.416 2.89844C11.0488 2.89844 10.7441 2.99609 10.502 3.19141C10.2624 3.38672 10.084 3.64583 9.9668 3.96875C9.85221 4.28906 9.79492 4.64062 9.79492 5.02344C9.79492 5.40885 9.85221 5.76172 9.9668 6.08203C10.084 6.40234 10.2624 6.65885 10.502 6.85156C10.7441 7.04427 11.0488 7.14062 11.416 7.14062ZM20.3291 2V8H19.1885V2H20.3291ZM19.833 4.78516V5.79297C19.6533 5.86589 19.4632 5.93099 19.2627 5.98828C19.0622 6.04297 18.8512 6.08594 18.6299 6.11719C18.4085 6.14844 18.1781 6.16406 17.9385 6.16406C17.1963 6.16406 16.6064 5.98307 16.1689 5.62109C15.7314 5.25651 15.5127 4.69922 15.5127 3.94922V1.98828H16.6494V3.94922C16.6494 4.23307 16.7015 4.46354 16.8057 4.64062C16.9098 4.81771 17.0583 4.94792 17.251 5.03125C17.4437 5.11458 17.6729 5.15625 17.9385 5.15625C18.29 5.15625 18.6143 5.1237 18.9111 5.05859C19.2106 4.99089 19.5179 4.89974 19.833 4.78516ZM21.1387 3.00781V2H26.2012V3.00781H24.2441V8H23.1035V3.00781H21.1387ZM28.9033 8.13281C28.5231 8.13281 28.1794 8.0625 27.8721 7.92187C27.5648 7.77865 27.3213 7.57161 27.1416 7.30078C26.9645 7.02995 26.876 6.69792 26.876 6.30469C26.876 5.96615 26.9411 5.6875 27.0713 5.46875C27.2015 5.25 27.3773 5.07682 27.5986 4.94922C27.82 4.82161 28.0674 4.72526 28.3408 4.66016C28.6143 4.59505 28.8929 4.54557 29.1768 4.51172C29.5361 4.47005 29.8278 4.4362 30.0518 4.41016C30.2757 4.38151 30.4385 4.33594 30.54 4.27344C30.6416 4.21094 30.6924 4.10937 30.6924 3.96875V3.94141C30.6924 3.60026 30.596 3.33594 30.4033 3.14844C30.2132 2.96094 29.9294 2.86719 29.5518 2.86719C29.1585 2.86719 28.8486 2.95443 28.6221 3.12891C28.3981 3.30078 28.2432 3.49219 28.1572 3.70312L27.0596 3.45312C27.1898 3.08854 27.3799 2.79427 27.6299 2.57031C27.8825 2.34375 28.1729 2.17969 28.501 2.07812C28.8291 1.97396 29.1742 1.92188 29.5361 1.92188C29.7757 1.92188 30.0296 1.95052 30.2979 2.00781C30.5687 2.0625 30.8213 2.16406 31.0557 2.3125C31.2926 2.46094 31.4867 2.67318 31.6377 2.94922C31.7887 3.22266 31.8643 3.57813 31.8643 4.01563V8H30.7236V7.17969H30.6768C30.6012 7.33073 30.488 7.47917 30.3369 7.625C30.1859 7.77083 29.9919 7.89193 29.7549 7.98828C29.5179 8.08464 29.234 8.13281 28.9033 8.13281ZM29.1572 7.19531C29.4801 7.19531 29.7562 7.13151 29.9854 7.00391C30.2171 6.8763 30.3929 6.70964 30.5127 6.50391C30.6351 6.29557 30.6963 6.07292 30.6963 5.83594V5.0625C30.6546 5.10417 30.5739 5.14323 30.4541 5.17969C30.3369 5.21354 30.2028 5.24349 30.0518 5.26953C29.9007 5.29297 29.7536 5.3151 29.6104 5.33594C29.4671 5.35417 29.3473 5.36979 29.251 5.38281C29.0244 5.41146 28.8174 5.45964 28.6299 5.52734C28.445 5.59505 28.2965 5.69271 28.1846 5.82031C28.0752 5.94531 28.0205 6.11198 28.0205 6.32031C28.0205 6.60937 28.1273 6.82812 28.3408 6.97656C28.5544 7.1224 28.8265 7.19531 29.1572 7.19531Z" fill="black"/>
</svg>
