<svg width="22" height="8" viewBox="0 0 22 8" fill="none" xmlns="http://www.w3.org/2000/svg">
<path d="M0.878906 -2.38419e-07H2.07422V5.875H2.14844L6.21875 -2.38419e-07H7.33594V8H6.12891V2.13281H6.05469L1.99219 8H0.878906V-2.38419e-07ZM12.3701 6.55469L14.3076 2H15.3154L12.8037 8H11.9365L9.47559 2H10.4717L12.3701 6.55469ZM10.1475 2V8H9.00293V2H10.1475ZM14.624 8V2H15.7607V8H14.624ZM20.8955 8V2.99609H19.458C19.1169 2.99609 18.8512 3.07552 18.6611 3.23437C18.471 3.39323 18.376 3.60156 18.376 3.85937C18.376 4.11458 18.4632 4.32031 18.6377 4.47656C18.8148 4.63021 19.0622 4.70703 19.3799 4.70703H21.2354V5.65234H19.3799C18.9372 5.65234 18.5544 5.57943 18.2314 5.43359C17.9111 5.28516 17.6637 5.07552 17.4893 4.80469C17.3174 4.53385 17.2314 4.21354 17.2314 3.84375C17.2314 3.46615 17.32 3.14062 17.4971 2.86719C17.6768 2.59115 17.9333 2.3776 18.2666 2.22656C18.6025 2.07552 18.9997 2 19.458 2H21.9932V8H20.8955ZM16.958 8L18.6494 4.96875H19.8447L18.1533 8H16.958Z" fill="black"/>
</svg>
